<svg id="Capa_1" data-name="Capa 1" xmlns="http://www.w3.org/2000/svg" viewBox="0 0 427.861 45.768">
  <defs>
    <style>
      .cls-1, .cls-2 {
        fill: #fff;
        stroke: #fff;
        stroke-miterlimit: 10;
        stroke-width: 1.604px;
      }

      .cls-2 {
        opacity: 0.31;
      }
    </style>
  </defs>
  <title>logo-principal</title>
  <g>
    <path class="cls-1" d="M-1191.51,823.831a13.181,13.181,0,0,1-7.869-2.227,17.158,17.158,0,0,1-5.063-5.764l2.623-1.647a22.351,22.351,0,0,0,2.043,2.928,11.361,11.361,0,0,0,2.318,2.136,9.394,9.394,0,0,0,2.745,1.28,12.309,12.309,0,0,0,3.386.428,9.192,9.192,0,0,0,3.66-.732,8.161,8.161,0,0,0,2.958-2.165,10.19,10.19,0,0,0,1.952-3.569,15.838,15.838,0,0,0,.7-4.94V780.521h3.172v28.792a18.32,18.32,0,0,1-1.067,6.527,12.8,12.8,0,0,1-2.836,4.574,11.159,11.159,0,0,1-3.935,2.563A13.259,13.259,0,0,1-1191.51,823.831Z" transform="translate(1205.511 -778.987)"/>
    <path class="cls-1" d="M-1151.067,780.521h3.172v42.7h-3.172Z" transform="translate(1205.511 -778.987)"/>
    <path class="cls-2" d="M-1071.281,823.831a23.912,23.912,0,0,1-9.241-1.708,28.392,28.392,0,0,1-7.96-5.124l2.074-2.379a30.148,30.148,0,0,0,3.508,2.837,19.765,19.765,0,0,0,3.568,1.952,20.024,20.024,0,0,0,3.843,1.159,22.73,22.73,0,0,0,4.392.4,14.426,14.426,0,0,0,4.392-.641,10.45,10.45,0,0,0,3.416-1.77,8.189,8.189,0,0,0,2.2-2.684,7.352,7.352,0,0,0,.793-3.386v-.122a8.437,8.437,0,0,0-.518-3.05,5.875,5.875,0,0,0-1.891-2.44,13.81,13.81,0,0,0-3.69-1.982,38.351,38.351,0,0,0-5.978-1.616,41.431,41.431,0,0,1-6.588-1.86,16.272,16.272,0,0,1-4.484-2.5,8.593,8.593,0,0,1-2.531-3.324,11.1,11.1,0,0,1-.793-4.331v-.122a9.624,9.624,0,0,1,1.037-4.423,11.224,11.224,0,0,1,2.867-3.568,13.5,13.5,0,0,1,4.331-2.379,16.894,16.894,0,0,1,5.49-.854,22.672,22.672,0,0,1,8.021,1.281,24.1,24.1,0,0,1,6.618,3.9l-2.013,2.5a19.637,19.637,0,0,0-6.131-3.722,19.585,19.585,0,0,0-6.618-1.1,13.561,13.561,0,0,0-4.3.641,10.574,10.574,0,0,0-3.294,1.738,7.649,7.649,0,0,0-2.1,2.563,6.863,6.863,0,0,0-.732,3.11v.122a8.651,8.651,0,0,0,.519,3.081,6.016,6.016,0,0,0,1.891,2.5,13.437,13.437,0,0,0,3.813,2.043,43.379,43.379,0,0,0,6.222,1.708q7.441,1.526,10.736,4.3a9.27,9.27,0,0,1,3.294,7.473v.122a10.553,10.553,0,0,1-1.067,4.728,11.027,11.027,0,0,1-2.928,3.69,13.722,13.722,0,0,1-4.453,2.379A18.147,18.147,0,0,1-1071.281,823.831Z" transform="translate(1205.511 -778.987)"/>
    <path class="cls-2" d="M-1019.492,783.389h-14.884v-2.867h32.94v2.867h-14.884v39.833h-3.172Z" transform="translate(1205.511 -778.987)"/>
    <path class="cls-2" d="M-959.59,823.893a20.1,20.1,0,0,1-7.046-1.189,15.26,15.26,0,0,1-5.551-3.538,15.922,15.922,0,0,1-3.629-5.765,22.52,22.52,0,0,1-1.281-7.93V780.521h3.172v24.644q0,7.626,3.813,11.743t10.644,4.117a16.7,16.7,0,0,0,5.856-.976,11.764,11.764,0,0,0,4.483-2.929,13.151,13.151,0,0,0,2.867-4.88,20.8,20.8,0,0,0,1.007-6.771V780.521h3.172V805.1a23.49,23.49,0,0,1-1.281,8.082,16.316,16.316,0,0,1-3.6,5.887,15.126,15.126,0,0,1-5.521,3.6A19.842,19.842,0,0,1-959.59,823.893Z" transform="translate(1205.511 -778.987)"/>
    <path class="cls-2" d="M-914.694,780.521h14.213a25.253,25.253,0,0,1,9.18,1.616,21.7,21.7,0,0,1,7.2,4.483,19.977,19.977,0,0,1,4.667,6.741,21.209,21.209,0,0,1,1.647,8.387v.122a21.421,21.421,0,0,1-1.647,8.418,19.88,19.88,0,0,1-4.667,6.771,22.071,22.071,0,0,1-7.2,4.514,24.813,24.813,0,0,1-9.18,1.647h-14.213Zm14.213,39.833a21.531,21.531,0,0,0,8.052-1.438,18.076,18.076,0,0,0,6.1-3.916,17.449,17.449,0,0,0,3.874-5.814,18.711,18.711,0,0,0,1.373-7.192v-.122a18.771,18.771,0,0,0-1.373-7.159,17.7,17.7,0,0,0-3.874-5.876,18.213,18.213,0,0,0-6.1-3.979,21.131,21.131,0,0,0-8.052-1.469h-11.041v36.966Z" transform="translate(1205.511 -778.987)"/>
    <path class="cls-2" d="M-851.192,780.521h3.172v42.7h-3.172Z" transform="translate(1205.511 -778.987)"/>
    <path class="cls-2" d="M-800.015,823.953a20.972,20.972,0,0,1-8.814-1.8,21.019,21.019,0,0,1-6.741-4.819,21.479,21.479,0,0,1-4.331-6.984,23.079,23.079,0,0,1-1.524-8.357v-.122a22.908,22.908,0,0,1,1.556-8.387,22.2,22.2,0,0,1,4.361-7.046,20.712,20.712,0,0,1,6.771-4.85,21.17,21.17,0,0,1,8.846-1.8,21.016,21.016,0,0,1,8.783,1.8,20.936,20.936,0,0,1,6.771,4.819,21.479,21.479,0,0,1,4.331,6.984,23.1,23.1,0,0,1,1.525,8.356.077.077,0,0,1,0,.122,22.909,22.909,0,0,1-1.556,8.388A22.212,22.212,0,0,1-784.4,817.3a20.62,20.62,0,0,1-6.8,4.85A21.245,21.245,0,0,1-800.015,823.953Zm.122-2.866a17.564,17.564,0,0,0,7.289-1.5,17.57,17.57,0,0,0,5.734-4.087,18.706,18.706,0,0,0,3.751-6.069,20.489,20.489,0,0,0,1.342-7.442v-.122a20.321,20.321,0,0,0-1.372-7.472,19.065,19.065,0,0,0-3.782-6.1,17.883,17.883,0,0,0-5.765-4.117,17.479,17.479,0,0,0-7.319-1.525,17.574,17.574,0,0,0-7.29,1.5,17.549,17.549,0,0,0-5.733,4.087,18.685,18.685,0,0,0-3.752,6.069,20.488,20.488,0,0,0-1.342,7.441v.122a20.315,20.315,0,0,0,1.372,7.473,19.054,19.054,0,0,0,3.782,6.1,17.858,17.858,0,0,0,5.765,4.117A17.477,17.477,0,0,0-799.893,821.087Z" transform="translate(1205.511 -778.987)"/>
  </g>
</svg>
