<svg id="Capa_1" data-name="Capa 1" xmlns="http://www.w3.org/2000/svg" viewBox="0 0 427.861 45.768">
  <defs>
    <style>
      .cls-1 {
        fill: #fff;
        stroke: #fff;
        stroke-miterlimit: 10;
        stroke-width: 1.604px;
      }
    </style>
  </defs>
  <title>logo-principal-active</title>
  <g>
    <path class="cls-1" d="M-1165.51,824.758a13.181,13.181,0,0,1-7.869-2.227,17.159,17.159,0,0,1-5.063-5.764l2.623-1.647a22.384,22.384,0,0,0,2.043,2.928,11.372,11.372,0,0,0,2.318,2.135,9.383,9.383,0,0,0,2.745,1.281,12.309,12.309,0,0,0,3.386.427,9.2,9.2,0,0,0,3.66-.732,8.156,8.156,0,0,0,2.958-2.166,10.192,10.192,0,0,0,1.952-3.569,15.841,15.841,0,0,0,.7-4.941V781.448h3.172V810.24a18.318,18.318,0,0,1-1.067,6.527,12.8,12.8,0,0,1-2.836,4.575,11.158,11.158,0,0,1-3.935,2.562A13.26,13.26,0,0,1-1165.51,824.758Z" transform="translate(1179.511 -779.914)"/>
    <path class="cls-1" d="M-1125.067,781.448h3.172v42.7h-3.172Z" transform="translate(1179.511 -779.914)"/>
    <path class="cls-1" d="M-1045.281,824.758a23.921,23.921,0,0,1-9.241-1.708,28.392,28.392,0,0,1-7.96-5.124l2.074-2.379a30.193,30.193,0,0,0,3.508,2.836,19.765,19.765,0,0,0,3.568,1.952,19.989,19.989,0,0,0,3.843,1.159,22.73,22.73,0,0,0,4.392.4,14.426,14.426,0,0,0,4.392-.641,10.44,10.44,0,0,0,3.416-1.769,8.191,8.191,0,0,0,2.2-2.684,7.35,7.35,0,0,0,.793-3.385v-.122a8.44,8.44,0,0,0-.518-3.05,5.874,5.874,0,0,0-1.891-2.44,13.8,13.8,0,0,0-3.69-1.982,38.3,38.3,0,0,0-5.978-1.616,41.427,41.427,0,0,1-6.588-1.861,16.272,16.272,0,0,1-4.484-2.5,8.593,8.593,0,0,1-2.531-3.324,11.1,11.1,0,0,1-.793-4.331v-.122a9.621,9.621,0,0,1,1.037-4.422,11.231,11.231,0,0,1,2.867-3.569,13.519,13.519,0,0,1,4.331-2.379,16.907,16.907,0,0,1,5.49-.854,22.661,22.661,0,0,1,8.021,1.281,24.082,24.082,0,0,1,6.618,3.9l-2.013,2.5a19.635,19.635,0,0,0-6.131-3.721,19.573,19.573,0,0,0-6.618-1.1,13.561,13.561,0,0,0-4.3.64,10.575,10.575,0,0,0-3.294,1.739,7.648,7.648,0,0,0-2.1,2.562,6.867,6.867,0,0,0-.732,3.111v.122a8.65,8.65,0,0,0,.519,3.081,6.016,6.016,0,0,0,1.891,2.5,13.449,13.449,0,0,0,3.813,2.043,43.508,43.508,0,0,0,6.222,1.708q7.441,1.526,10.736,4.3a9.271,9.271,0,0,1,3.294,7.473v.122a10.552,10.552,0,0,1-1.067,4.728,11.017,11.017,0,0,1-2.928,3.69,13.7,13.7,0,0,1-4.453,2.379A18.147,18.147,0,0,1-1045.281,824.758Z" transform="translate(1179.511 -779.914)"/>
    <path class="cls-1" d="M-993.492,784.315h-14.884v-2.867h32.94v2.867H-990.32v39.833h-3.172Z" transform="translate(1179.511 -779.914)"/>
    <path class="cls-1" d="M-933.59,824.819a20.1,20.1,0,0,1-7.046-1.189,15.254,15.254,0,0,1-5.551-3.538,15.92,15.92,0,0,1-3.629-5.764,22.522,22.522,0,0,1-1.281-7.93V781.448h3.172v24.644q0,7.626,3.813,11.743t10.644,4.118a16.688,16.688,0,0,0,5.856-.976,11.769,11.769,0,0,0,4.483-2.928,13.151,13.151,0,0,0,2.867-4.88,20.8,20.8,0,0,0,1.007-6.771V781.448h3.172v24.583a23.491,23.491,0,0,1-1.281,8.083,16.321,16.321,0,0,1-3.6,5.887,15.119,15.119,0,0,1-5.521,3.6A19.831,19.831,0,0,1-933.59,824.819Z" transform="translate(1179.511 -779.914)"/>
    <path class="cls-1" d="M-888.694,781.448h14.213a25.253,25.253,0,0,1,9.18,1.617,21.7,21.7,0,0,1,7.2,4.483,19.975,19.975,0,0,1,4.667,6.741,21.211,21.211,0,0,1,1.647,8.387v.122a21.425,21.425,0,0,1-1.647,8.418,19.878,19.878,0,0,1-4.667,6.771,22.08,22.08,0,0,1-7.2,4.514,24.823,24.823,0,0,1-9.18,1.647h-14.213Zm14.213,39.833a21.531,21.531,0,0,0,8.052-1.438,18.069,18.069,0,0,0,6.1-3.917,17.442,17.442,0,0,0,3.874-5.814,18.713,18.713,0,0,0,1.373-7.192V802.8a18.776,18.776,0,0,0-1.373-7.16,17.708,17.708,0,0,0-3.874-5.876,18.22,18.22,0,0,0-6.1-3.979,21.141,21.141,0,0,0-8.052-1.469h-11.041v36.966Z" transform="translate(1179.511 -779.914)"/>
    <path class="cls-1" d="M-825.192,781.448h3.172v42.7h-3.172Z" transform="translate(1179.511 -779.914)"/>
    <path class="cls-1" d="M-774.015,824.88a20.965,20.965,0,0,1-8.814-1.8,21.011,21.011,0,0,1-6.741-4.819,21.474,21.474,0,0,1-4.331-6.984,23.076,23.076,0,0,1-1.524-8.357V802.8a22.912,22.912,0,0,1,1.556-8.387,22.2,22.2,0,0,1,4.361-7.046,20.71,20.71,0,0,1,6.771-4.849,21.17,21.17,0,0,1,8.846-1.8,21.016,21.016,0,0,1,8.783,1.8,20.935,20.935,0,0,1,6.771,4.819,21.49,21.49,0,0,1,4.331,6.984,23.1,23.1,0,0,1,1.525,8.357.077.077,0,0,1,0,.122,22.911,22.911,0,0,1-1.556,8.388,22.21,22.21,0,0,1-4.361,7.045,20.62,20.62,0,0,1-6.8,4.85A21.237,21.237,0,0,1-774.015,824.88Zm.122-2.867a17.564,17.564,0,0,0,7.289-1.495,17.577,17.577,0,0,0,5.734-4.087,18.713,18.713,0,0,0,3.751-6.07,20.487,20.487,0,0,0,1.342-7.442V802.8a20.322,20.322,0,0,0-1.372-7.472,19.062,19.062,0,0,0-3.782-6.1,17.885,17.885,0,0,0-5.765-4.118,17.487,17.487,0,0,0-7.319-1.525,17.574,17.574,0,0,0-7.29,1.495,17.563,17.563,0,0,0-5.733,4.087,18.7,18.7,0,0,0-3.752,6.069,20.491,20.491,0,0,0-1.342,7.442v.122a20.317,20.317,0,0,0,1.372,7.473,19.046,19.046,0,0,0,3.782,6.1,17.843,17.843,0,0,0,5.765,4.117A17.47,17.47,0,0,0-773.893,822.014Z" transform="translate(1179.511 -779.914)"/>
  </g>
</svg>
